{"title":"Pinky Moge Wali (2012) 720P ESUB PUNJABI MOVIE DVD RIP GOPI SAHI","uid":8960791,"size":1132821229,"categoryP":"video","categoryS":"hd___movies","magnet":"?xt=urn:btih:71202b8b432ac8d7f585a426abd20e53cb6cba65&amp;dn=Pinky+Moge+Wali+%282012%29+720P+ESUB+PUNJABI+MOVIE+DVD+RIP+GOPI+SAHI&amp;tr=udp%3A%2F%2Ftracker.openbittorrent.com%3A80&amp;tr=udp%3A%2F%2Fopen.demonii.com%3A1337&amp;tr=udp%3A%2F%2Ftracker.coppersurfer.tk%3A6969&amp;tr=udp%3A%2F%2Fexodus.desync.com%3A6969","seeders":0,"leechers":3,"uploader":"jatt13","files":10,"time":1380107623,"description":"[img]http://imageshack.us/a/img802/2678/k9wp.png[/img]\n\n[img]http://imageshack.us/a/img12/8660/scak.jpg[/img]\n\nDirector:Vikram Dhillon\nWriters:Vekeana Dhillon (screenplay), Vikram Dhillon \nStars:Neeru Bajwa, Gavie Chahal, K.S. Makhan \n\nVideo\nID                             : 0\nFormat                         : AVC\nFormat/Info                    : Advanced Video Codec\nFormat profile                 : &lt;a class=&quot;__cf_email__&quot; href=&quot;/cdn-cgi/l/email-protection&quot; data-cfemail=&quot;672a060e09272b524956&quot;&gt;[email&amp;#160;protected]&lt;/a&gt;&lt;script cf-hash='f9e31' type=&quot;text/javascript&quot;&gt;\n/* &lt;![CDATA[ */!function(){try{var t=&quot;currentScript&quot;in document?document.currentScript:function(){for(var t=document.getElementsByTagName(&quot;script&quot;),e=t.length;e--;)if(t[e].getAttribute(&quot;cf-hash&quot;))return t[e]}();if(t&amp;&amp;t.previousSibling){var e,r,n,i,c=t.previousSibling,a=c.getAttribute(&quot;data-cfemail&quot;);if(a){for(e=&quot;&quot;,r=parseInt(a.substr(0,2),16),n=2;a.length-n;n+=2)i=parseInt(a.substr(n,2),16)^r,e+=String.fromCharCode(i);e=document.createTextNode(e),c.parentNode.replaceChild(e,c)}}}catch(u){}}();/* ]]&gt; */&lt;/script&gt;\nFormat settings, CABAC         : Yes\nFormat settings, ReFrames      : 1 frame\nCodec ID                       : H264\nDuration                       : 2h 11mn\nBit rate                       : 998 Kbps\nWidth                          : 1 280 pixels\nHeight                         : 720 pixels\nDisplay aspect ratio           : 16:9\nFrame rate                     : 25.000 fps\nColor space                    : YUV\nChroma subsampling             : 4:2:0\nBit depth                      : 8 bits\nScan type                      : Progressive\nBits/(Pixel*Frame)             : 0.043\nStream size                    : 938 MiB (88%)\n\nAudio\nID                             : 1\nFormat                         : MPEG Audio\nFormat version                 : Version 1\nFormat profile                 : Layer 3\nCodec ID                       : 55\nCodec ID/Hint                  : MP3\nDuration                       : 2h 11mn\nBit rate mode                  : Constant\nBit rate                       : 128 Kbps\nChannel count                  : 2 channels\nSampling rate                  : 44.1 KHz\nCompression mode               : Lossy\nStream size                    : 120 MiB (11%)\nAlignment                      : Split accross interleaves\nInterleave, duration           : 40 ms (1.01 video frame)\nInterleave, preload duration   : 50 ms\n\n[img]http://imageshack.us/a/img11/2352/o7vg.jpg[/img]\n\n[img]http://imageshack.us/a/img62/7082/mtrb.png[/img]\n\n[img]http://imageshack.us/a/img401/7335/62kr.png[/img]\n\n[img]http://imageshack.us/a/img690/4388/d7ac.png[/img]\n\n[img]http://imageshack.us/a/img30/1517/zdy.png[/img]\n\n[img]http://imageshack.us/a/img19/7468/teir.png[/img]\n\n[img]http://imageshack.us/a/img15/6788/w7vk.png[/img]","torrent":{"xt":"urn:btih:71202b8b432ac8d7f585a426abd20e53cb6cba65","amp;dn":"Pinky+Moge+Wali+%282012%29+720P+ESUB+PUNJABI+MOVIE+DVD+RIP+GOPI+SAHI","amp;tr":["udp%3A%2F%2Ftracker.openbittorrent.com%3A80","udp%3A%2F%2Fopen.demonii.com%3A1337","udp%3A%2F%2Ftracker.coppersurfer.tk%3A6969","udp%3A%2F%2Fexodus.desync.com%3A6969"],"infoHash":"71202b8b432ac8d7f585a426abd20e53cb6cba65","infoHashBuffer":{"type":"Buffer","data":[113,32,43,139,67,42,200,215,245,133,164,38,171,210,14,83,203,108,186,101]},"announce":[],"urlList":[]}}